<?xml version="1.0" encoding="UTF-8" standalone="no"?>
<!-- Created with Inkscape (http://www.inkscape.org/) -->

<svg
   width="175.11462mm"
   height="295.25162mm"
   viewBox="0 0 175.11462 295.25162"
   version="1.1"
   id="svg5"
   xmlns="http://www.w3.org/2000/svg"
   xmlns:svg="http://www.w3.org/2000/svg">
  <defs
     id="defs2" />
  <g
     id="layer1"
     style="display:inline"
     transform="translate(-33.960419,-2.6646806)">
    <g
       aria-label="0"
       id="text1339"
       style="font-size:310.955px;font-family:GOST;-inkscape-font-specification:GOST;stroke-width:0.621908">
      <path
         d="m 204.01393,98.990457 q 0.60733,2.125673 1.21466,6.073343 0.60734,3.644 1.82201,16.39801 1.51833,12.45035 1.822,25.8117 0.60733,13.05768 -0.60734,33.0997 -0.911,19.73835 -4.25133,39.4767 -1.51834,10.62835 -5.16234,20.34569 -10.93201,27.6337 -34.61804,43.72805 -20.95302,13.66501 -39.17304,13.96868 -33.099699,0.911 -61.340728,-32.79604 -7.591674,-8.80634 -12.450346,-19.73835 -4.858672,-11.23568 -6.984341,-19.43469 -2.125669,-8.50267 -5.466005,-25.50802 -4.858672,-24.90069 -4.858672,-50.40872 0,-33.70704 8.502675,-66.199402 Q 46.410764,69.53476 48.8401,61.943085 51.269436,54.351411 56.735441,44.634067 62.201447,34.613057 70.096789,27.021382 94.693814,3.0316911 121.41651,3.9426921 q 8.19901,0.303667 16.09435,2.7330028 18.82735,5.7696721 33.70703,18.5236861 7.28801,6.377006 13.05768,15.487016 5.76968,8.806342 9.41368,20.345687 3.94767,11.235678 5.76967,18.523686 2.12567,7.288007 4.55501,19.434687 z m -32.79604,96.869763 q 2.12567,-12.75401 2.12567,-24.59702 0.30367,-11.84301 -0.911,-30.67037 -0.911,-19.13102 -1.21467,-23.68602 -0.30366,-10.62835 -2.733,-20.649356 -3.03667,-14.576015 -9.71734,-26.419027 -6.68068,-12.14668 -14.87969,-17.005351 -8.199,-4.555005 -17.61268,-5.466006 h -2.12567 q -11.84301,0.303667 -20.34569,3.644004 -18.523682,6.98434 -26.722691,43.424378 -0.303667,2.125669 -0.911001,4.555005 -7.288007,40.995043 -0.911001,91.403763 3.03667,23.68602 8.806343,35.52903 7.895341,16.09435 17.91635,22.47136 10.32468,6.07334 22.47136,6.07334 0.60733,0 1.51833,0 12.45035,-0.30367 20.34569,-5.46601 7.59167,-4.85867 14.27235,-18.52368 7.89534,-16.39802 10.62834,-34.61804 z"
         id="path1341" />
    </g>
  </g>
</svg>
