<?xml version="1.0" encoding="UTF-8" standalone="no"?>
<!-- Created with Inkscape (http://www.inkscape.org/) -->

<svg
   width="136.17741mm"
   height="293.37552mm"
   viewBox="0 0 136.17741 293.37552"
   version="1.1"
   id="svg5"
   xmlns="http://www.w3.org/2000/svg"
   xmlns:svg="http://www.w3.org/2000/svg">
  <defs
     id="defs2" />
  <g
     id="layer1"
     style="display:inline"
     transform="translate(-41.825879,-1.229223)">
    <g
       aria-label="1"
       id="text293-4"
       style="font-size:311.959px;font-family:GOST;-inkscape-font-specification:GOST;display:inline;stroke-width:0.623916">
      <path
         d="m 141.75025,1.229223 h 28.94151 q 3.04648,0 5.17901,2.1325323 2.13253,2.1325323 2.13253,5.1790071 V 287.2932 q 0,3.04648 -2.13253,5.17901 -2.13253,2.13253 -5.17901,2.13253 h -25.28574 q -3.04647,0 -5.17901,-2.13253 -2.13253,-2.13253 -2.13253,-5.17901 L 137.78983,76.172502 q 0,-3.046475 -2.13253,-5.179007 -2.13253,-2.132532 -5.179,-2.132532 -3.04648,0 -5.17901,2.132532 L 74.42316,123.39286 q -2.132533,2.13253 -5.179008,2.13253 -3.046474,0 -5.179007,-2.13253 L 43.958412,102.67683 q -2.132532,-2.13253 -2.132532,-4.874357 0,-3.046475 2.132532,-5.179007 L 136.57124,3.3617553 q 2.13254,-2.1325323 5.17901,-2.1325323 z"
         id="path580" />
    </g>
  </g>
</svg>
