<?xml version="1.0" encoding="UTF-8" standalone="no"?>
<!-- Created with Inkscape (http://www.inkscape.org/) -->

<svg
   width="167.25146mm"
   height="294.3772mm"
   viewBox="0 0 167.25146 294.3772"
   version="1.1"
   id="svg5"
   xmlns="http://www.w3.org/2000/svg"
   xmlns:svg="http://www.w3.org/2000/svg">
  <defs
     id="defs2" />
  <g
     id="layer1"
     style="display:inline"
     transform="translate(-41.52123,-2.6646806)">
    <g
       aria-label="2"
       id="text293-04"
       style="font-size:311.959px;font-family:GOST;-inkscape-font-specification:GOST;display:inline;stroke-width:0.623916">
      <path
         d="m 72.595275,85.921221 q -21.325324,0 -21.325324,0 h -0.304647 q -3.65577,0 -6.397597,-2.43718 -2.43718,-2.741827 -2.43718,-6.397597 0,-0.609295 0,-0.913942 0.609295,-3.65577 1.21859,-7.006892 0.913942,-5.788302 2.741827,-10.662662 1.21859,-3.960417 3.960418,-9.139424 2.741827,-5.483654 8.225481,-13.709136 5.483655,-8.53013 15.232374,-16.146317 9.748719,-7.616186 21.629971,-11.8812511 25.285742,-9.4440717 52.399362,-0.9139424 19.80209,6.0929495 34.72982,20.7160285 15.23237,14.623079 21.32532,33.511222 7.00689,20.716028 2.74183,41.127412 -3.04648,14.31843 -10.66267,26.80898 -0.30464,0.30464 -0.91394,1.21859 -0.30465,0.60929 -0.60929,0.91394 -0.30465,0.30464 -0.6093,0.91394 -5.48365,6.70224 -14.92772,17.66955 -9.13943,10.66267 -28.94151,33.81587 -19.80209,23.15321 -32.90193,38.69023 -13.09984,15.23238 -13.09984,15.23238 -2.13254,2.43718 -2.13254,5.7883 0,3.65577 2.43718,6.3976 2.74183,2.43718 6.3976,2.43718 5.7883,0.30464 14.92773,0.60929 9.44407,0 28.94151,0.30465 19.49744,0 32.59728,0.30465 13.09984,0.30464 13.09984,0.30464 3.65577,0 6.09295,2.74183 2.74183,2.43718 2.74183,6.09295 v 25.89503 q 0,3.65577 -2.74183,6.3976 -2.43718,2.43718 -6.09295,2.43718 H 50.356009 q -3.65577,0 -6.397597,-2.43718 -2.43718,-2.74183 -2.43718,-6.3976 0,-2.13253 0,-5.179 0,-3.35112 0,-10.05337 0,-7.00689 0,-11.5766 0,-4.56972 0,-4.56972 0,-3.35112 2.132533,-5.7883 L 158.81051,115.77667 q 0.30465,-0.30464 0.6093,-0.60929 8.22548,-11.57661 8.53012,-25.590389 0.30465,-3.65577 -0.30464,-7.920835 -0.30465,-4.569712 -4.26507,-13.404488 -3.96041,-8.834777 -11.27195,-14.318432 -10.96731,-7.920834 -29.55081,-7.006892 -14.01378,0.609295 -24.06715,7.006892 -8.834777,6.09295 -14.318431,15.232374 -2.43718,4.265065 -4.265065,8.834777 -1.21859,3.046475 -1.523237,3.655769 -1.21859,4.265065 -5.788302,4.265065 z"
         id="path509" />
    </g>
  </g>
</svg>
