<?xml version="1.0" encoding="UTF-8" standalone="no"?>
<!-- Created with Inkscape (http://www.inkscape.org/) -->

<svg
   width="168.82478mm"
   height="287.89188mm"
   viewBox="0 0 168.82478 287.89188"
   version="1.1"
   id="svg5"
   xmlns="http://www.w3.org/2000/svg"
   xmlns:svg="http://www.w3.org/2000/svg">
  <defs
     id="defs2" />
  <g
     id="layer1"
     style="display:inline"
     transform="translate(-41.52123,-9.454705)">
    <g
       aria-label="3"
       id="text293-2"
       style="font-size:311.959px;font-family:GOST;-inkscape-font-specification:GOST;display:inline;stroke-width:0.623916">
      <path
         d="m 204.50763,50.886761 q 0,1.827885 -1.21859,3.351123 -3.65577,4.265064 -10.05337,11.576604 -6.09294,7.311539 -19.19279,22.84856 -12.79519,15.232372 -21.62997,25.590392 -8.53013,10.05336 -8.53013,10.05336 -1.21859,1.21859 -1.21859,3.35113 0,3.65576 3.35113,4.87435 21.62997,7.61619 31.98798,15.53703 20.41138,16.14631 28.33222,41.12741 9.44407,28.02756 -3.35113,57.88302 -1.21859,2.43718 -3.04647,5.48365 -1.52324,3.04647 -6.3976,10.05337 -4.87436,7.00689 -10.66266,12.79519 -5.48365,5.48366 -14.92773,11.27196 -9.13942,5.7883 -19.49743,8.53013 -9.44408,2.13253 -18.88815,2.13253 -7.61618,0 -14.92772,-1.21859 -26.808982,-4.87436 -48.134305,-25.89504 -10.358014,-10.35801 -16.146316,-21.02067 -5.483655,-10.66266 -7.006892,-17.36491 -1.523237,-7.00689 -1.827885,-14.31843 0,0 0,0 0,-2.13253 1.523238,-3.65577 1.523237,-1.52324 3.655769,-1.52324 26.808978,0 26.808978,0 3.65577,0 4.87436,3.35113 1.523237,4.56971 4.265064,9.13942 7.920835,14.01378 17.364909,22.23927 12.49054,11.5766 26.19968,11.5766 16.14632,0 29.24616,-11.27196 14.31843,-12.49054 14.31843,-29.85545 0,-12.79519 -5.7883,-23.7625 -6.70225,-12.1859 -15.53702,-17.9742 -2.43718,-1.82789 -5.78831,-2.74183 -3.35112,-1.21859 -6.09295,-1.82789 -2.74182,-0.60929 -6.09294,-0.91394 -3.35113,-0.30465 -5.48366,0 -1.82788,0 -4.26506,0 -2.43718,0 -2.43718,0 -15.53703,0 -15.53703,0 -2.13253,0 -3.655765,-1.52324 -1.523237,-1.52323 -1.523237,-3.65577 0,-2.43718 0,-6.70224 0,-4.26506 0,-12.79519 0,-8.83478 0,-14.62308 0,-6.09295 0,-6.09295 0,-1.82789 1.21859,-3.35112 3.655772,-3.96042 9.139422,-10.35802 5.7883,-6.70224 17.66956,-20.716027 11.88125,-14.013784 19.80208,-23.457855 7.92084,-9.444072 7.92084,-9.444072 1.21859,-1.21859 1.21859,-3.351122 0,-2.132533 -1.52324,-3.65577 -1.52324,-1.523237 -3.65577,-1.523237 H 52.793189 q -2.132533,0 -3.65577,-1.523238 -1.523237,-1.523237 -1.523237,-3.655769 V 14.633712 q 0,-2.132532 1.523237,-3.65577 1.523237,-1.5232372 3.65577,-1.5232372 146.535431,0 146.535431,0 2.13254,0 3.65577,1.5232372 1.52324,1.523238 1.52324,3.65577 z"
         id="path512" />
    </g>
  </g>
</svg>
