<?xml version="1.0" encoding="UTF-8" standalone="no"?>
<!-- Created with Inkscape (http://www.inkscape.org/) -->

<svg
   width="163.5957mm"
   height="289.4151mm"
   viewBox="0 0 163.5957 289.4151"
   version="1.1"
   id="svg5"
   xmlns="http://www.w3.org/2000/svg"
   xmlns:svg="http://www.w3.org/2000/svg">
  <defs
     id="defs2" />
  <g
     id="layer1"
     style="display:inline"
     transform="translate(-41.52123,-6.7128776)">
    <g
       aria-label="4"
       id="text293-69"
       style="font-size:311.959px;font-family:GOST;-inkscape-font-specification:GOST;display:inline;stroke-width:0.623916">
      <path
         d="m 205.11693,287.2932 q 0,3.65577 -2.74183,6.3976 -2.43718,2.43718 -6.09295,2.43718 h -21.02068 q -3.65577,0 -6.39759,-2.43718 -2.43718,-2.74183 -2.43718,-6.3976 0,0 -0.30465,-16.14631 0,-16.45097 0,-32.59728 v -16.14632 q 0,-3.96042 -2.74183,-6.3976 -2.74182,-2.74182 -6.39759,-2.74182 0,0 -26.80898,0 -26.50433,0 -53.008663,0 H 50.356009 q -3.65577,0 -6.397597,-2.43718 -2.43718,-2.74183 -2.43718,-6.3976 v -25.89504 q 0.304648,-8.83477 4.569712,-16.45096 0,0 22.543914,-38.08093 Q 91.178771,85.616574 113.41804,47.230992 L 135.96195,8.8454098 q 1.52324,-2.1325323 4.26506,-2.1325323 h 29.24616 q 3.65577,0 4.87436,2.1325323 1.52324,2.1325322 -0.30465,5.4836542 L 88.436943,164.52027 q -1.827884,3.35112 -0.609295,5.7883 1.523238,2.13253 5.179008,2.13253 h 63.975974 q 3.65577,0 6.39759,-2.43718 2.74183,-2.74182 2.74183,-6.70224 v -21.32532 q 0,-3.65577 2.43718,-6.09295 2.74183,-2.74183 6.3976,-2.74183 0,0 5.179,0 5.48366,0 10.66267,0 h 5.48365 q 3.65577,0.30465 6.09295,3.04647 2.74183,2.43718 2.74183,6.09295 0,0 0,36.25305 0,36.25305 0,72.5061 z"
         id="path562"
         style="display:inline" />
    </g>
  </g>
</svg>
