<?xml version="1.0" encoding="UTF-8" standalone="no"?>
<!-- Created with Inkscape (http://www.inkscape.org/) -->

<svg
   width="175.18945mm"
   height="292.46158mm"
   viewBox="0 0 175.18945 292.46158"
   version="1.1"
   id="svg5"
   xmlns="http://www.w3.org/2000/svg"
   xmlns:svg="http://www.w3.org/2000/svg">
  <defs
     id="defs2" />
  <g
     id="layer1"
     style="display:inline"
     transform="translate(-34.112893,-4.2756981)">
    <g
       aria-label="5"
       id="text293-651"
       style="font-size:311.959px;font-family:GOST;-inkscape-font-specification:GOST;display:inline;stroke-width:0.623916">
      <path
         d="m 97.784214,111.20696 h 2.741826 q 8.83478,0 17.66955,0.30465 6.70225,0 17.06026,2.43718 35.64376,8.22548 55.1412,33.81587 18.27885,23.7625 18.88814,53.61795 0.6093,31.07405 -20.41138,58.79697 -19.19279,24.98109 -45.69712,32.90192 -11.88125,3.65577 -24.67645,3.65577 -10.96731,0 -21.629968,-2.74182 -16.755611,-4.26507 -35.643755,-18.5835 -14.013784,-10.96731 -26.199683,-33.20657 -0.913942,-1.82789 -0.913942,-3.65577 0,-5.48366 5.179007,-7.31154 1.21859,-0.6093 3.046475,-1.21859 2.132532,-0.6093 6.092949,-2.13254 4.265065,-1.82788 7.006892,-2.74182 2.741827,-1.21859 2.741827,-1.21859 1.827885,-0.6093 3.65577,-0.6093 6.09295,0 9.444072,5.17901 5.483654,8.83478 18.583496,16.45096 14.62308,8.53013 28.33221,7.92084 12.1859,-0.30465 22.54392,-6.09295 16.14631,-9.13943 23.15321,-28.63686 3.04647,-8.83478 3.04647,-17.97421 0,-6.39759 -1.21859,-12.18589 -2.43718,-10.35802 -9.13942,-18.88815 -12.1859,-14.31843 -30.7694,-14.92772 h -1.21859 -10.35801 -59.101612 q -3.65577,0 -6.397597,-2.43718 -2.741828,-2.74183 -2.741828,-6.70225 V 13.110474 q 0,-3.6557692 2.43718,-6.092949 2.741827,-2.7418273 6.397597,-2.7418273 h 136.48207 q 3.65577,0 6.3976,2.7418273 2.74182,2.4371798 2.74182,6.092949 0,1.523238 0,4.265065 0,2.43718 0,7.920835 0,5.483654 0,9.139424 0,3.655769 0,3.655769 0,3.65577 -2.74182,6.397597 -2.74183,2.741828 -6.3976,2.741828 -5.7883,0 -15.53702,0 -9.74872,0 -30.1601,0 -20.41138,0 -34.12052,0 -13.709136,0 -13.709136,0 -3.65577,0 -6.397597,2.741827 -2.43718,2.741827 -2.43718,6.397597 v 46.001764 q 0,3.65577 2.43718,6.3976 2.741827,2.43718 6.397597,2.43718 z"
         id="path565" />
    </g>
  </g>
</svg>
