<?xml version="1.0" encoding="UTF-8" standalone="no"?>
<!-- Created with Inkscape (http://www.inkscape.org/) -->

<svg
   width="176.71298mm"
   height="295.45981mm"
   viewBox="0 0 176.71298 295.45981"
   version="1.1"
   id="svg5"
   xmlns="http://www.w3.org/2000/svg"
   xmlns:svg="http://www.w3.org/2000/svg">
  <defs
     id="defs2" />
  <g
     id="layer1"
     style="display:inline"
     transform="translate(-31.757211,-1.5338704)">
    <g
       aria-label="6"
       id="text293-9"
       style="font-size:311.959px;font-family:GOST;-inkscape-font-specification:GOST;display:inline;stroke-width:0.623916">
      <path
         d="m 200.24177,167.2621 q 16.14632,33.20657 0.6093,72.20145 -15.53702,40.21347 -49.65754,52.70401 -33.51122,12.1859 -68.85033,-6.39759 -36.557698,-19.1928 -48.134302,-64.88992 -3.960417,-16.14631 -1.523237,-42.95529 1.21859,-17.36491 5.179007,-33.81587 3.960417,-16.45096 9.748719,-30.46475 6.09295,-14.013782 10.053367,-21.934617 3.960417,-7.920834 9.748719,-17.974201 21.934618,-38.994877 54.227247,-70.3735667 0,0 0.30465,0 2.43718,-1.8278849 5.48366,-1.8278849 2.74182,0 7.61618,0 4.87436,0 14.92773,0 10.35801,0 17.06026,0 7.00689,0 7.00689,0 1.82788,0 1.82788,2.1325324 0,0.9139424 -0.60929,1.5232373 -52.39937,45.0878269 -84.996646,112.1102699 -0.304648,0.30465 -0.304648,0.91394 0,1.82789 1.827885,1.82789 0.609295,0 3.046475,-0.30465 2.43718,-0.60929 7.311544,-0.91394 5.179,-0.6093 12.49054,-0.6093 12.49055,0.30465 24.98109,2.74183 7.61619,1.52324 14.92773,4.56971 8.53013,3.35113 16.45096,8.83478 7.92084,5.48365 12.49055,10.66266 4.87436,4.87436 8.83478,10.66266 4.26506,5.48366 5.48365,7.92084 1.52324,2.43718 2.43718,3.65577 z M 89.350091,236.11243 q 13.099839,13.09984 31.683339,13.09984 18.88814,0 31.98798,-13.09984 13.09985,-13.09984 13.09985,-31.68334 0,-18.88814 -13.09985,-31.98799 -13.09984,-13.09984 -31.98798,-13.09984 -18.5835,0 -31.683339,13.09984 -13.099841,13.09985 -13.099841,31.98799 0,18.5835 13.099841,31.68334 z"
         id="path568" />
    </g>
  </g>
</svg>
