<?xml version="1.0" encoding="UTF-8" standalone="no"?>
<!-- Created with Inkscape (http://www.inkscape.org/) -->

<svg
   width="169.384mm"
   height="293.07083mm"
   viewBox="0 0 169.384 293.07083"
   version="1.1"
   id="svg5"
   xmlns="http://www.w3.org/2000/svg"
   xmlns:svg="http://www.w3.org/2000/svg">
  <defs
     id="defs2" />
  <g
     id="layer1"
     style="display:inline"
     transform="translate(-41.52123,-3.9710502)">
    <g
       aria-label="7"
       id="text293-65"
       style="font-size:311.959px;font-family:GOST;-inkscape-font-specification:GOST;display:inline;stroke-width:0.623916">
      <path
         d="M 50.356009,3.9710502 H 202.07045 q 3.65577,0 6.09295,2.7418273 2.74183,2.4371798 2.74183,6.0929495 0,1.523237 0,4.265065 0,2.741827 0,8.530129 0,5.483655 0,9.444072 0,3.655769 0,3.655769 -0.30465,8.834777 -3.04648,17.060259 L 120.42493,288.81644 q -3.35112,7.92083 -11.88125,8.22548 H 82.648641 q -3.960417,0 -5.788302,-2.43718 -1.523237,-2.43718 0,-5.7883 L 166.4267,55.456474 q 1.21859,-3.351123 -0.6093,-5.788302 -1.52324,-2.43718 -5.179,-2.43718 H 50.356009 q -3.65577,0 -6.397597,-2.741828 -2.43718,-2.741827 -2.43718,-6.397597 v -25.28574 q 0,-3.6557697 2.43718,-6.0929495 2.741827,-2.7418273 6.397597,-2.7418273 z"
         id="path571" />
    </g>
  </g>
</svg>
