<?xml version="1.0" encoding="UTF-8" standalone="no"?>
<!-- Created with Inkscape (http://www.inkscape.org/) -->

<svg
   width="178.21877mm"
   height="289.83578mm"
   viewBox="0 0 178.21877 289.83578"
   version="1.1"
   id="svg5"
   xmlns="http://www.w3.org/2000/svg"
   xmlns:svg="http://www.w3.org/2000/svg">
  <defs
     id="defs2" />
  <g
     id="layer1"
     style="display:inline"
     transform="translate(-30.408736,-6.5968211)">
    <g
       aria-label="8"
       id="text293-1"
       style="font-size:311.959px;font-family:GOST;-inkscape-font-specification:GOST;display:inline;stroke-width:0.623916">
      <path
         d="m 178.46741,134.66482 q -0.91394,1.21859 -0.91394,2.74182 0,2.13254 1.52323,3.35113 13.70914,12.49054 21.62997,29.85545 7.92084,17.06026 7.92084,36.5577 0,36.86234 -26.19968,63.06202 -25.89504,26.19969 -62.75738,26.19969 -0.6093,0 -1.21859,0 -36.253053,-0.6093 -62.148089,-26.50433 -25.590388,-25.89504 -25.895035,-61.84344 0,-0.30465 0,-0.6093 0,-0.30464 0,-0.30464 0,-19.49744 7.920834,-36.5577 7.920835,-17.36491 21.934618,-29.85545 1.523238,-1.21859 1.523238,-3.35113 0,-1.52323 -1.21859,-2.74182 Q 41.98534,113.03485 41.98534,84.093336 q 0,-30.769395 21.020676,-53.00866 21.325323,-22.2392662 51.790074,-24.3717985 23.1532,-1.2185899 42.95529,10.3580145 20.10673,11.271956 30.7694,31.683337 10.66266,20.411381 8.22548,43.564589 -2.43718,24.067152 -18.27885,42.346002 z M 116.92862,43.270575 Q 101.08695,44.184517 89.814994,55.456474 78.543037,66.72843 77.629095,82.570099 q 0,0.304647 0,2.132532 0,17.060259 12.185899,29.246159 12.185896,12.1859 29.246156,12.1859 17.36491,0 29.24616,-12.1859 12.1859,-12.1859 12.1859,-29.246159 0,-17.060258 -12.1859,-29.246157 -11.88125,-12.185899 -29.24616,-12.185899 -0.91394,0 -2.13253,0 z M 84.026691,242.81467 q 14.318432,14.31843 34.425169,14.31843 20.41138,0 34.72981,-14.31843 14.62308,-14.31843 14.62308,-34.72981 0,-20.41138 -14.62308,-34.72981 -14.31843,-14.31843 -34.72981,-14.31843 -20.106737,0 -34.425169,14.31843 -14.318431,14.31843 -14.318431,34.72981 0,20.41138 14.318431,34.72981 z"
         id="path574" />
    </g>
  </g>
</svg>
