<?xml version="1.0" encoding="UTF-8" standalone="no"?>
<!-- Created with Inkscape (http://www.inkscape.org/) -->

<svg
   width="178.21877mm"
   height="290.93839mm"
   viewBox="0 0 178.21877 290.93838"
   version="1.1"
   id="svg5"
   xmlns="http://www.w3.org/2000/svg"
   xmlns:svg="http://www.w3.org/2000/svg">
  <defs
     id="defs2" />
  <g
     aria-label="9"
     transform="scale(1.0036031,0.99640988)"
     id="text167"
     style="font-size:308.194px;font-family:GOST;-inkscape-font-specification:GOST;stroke-width:0.616387">
    <path
       d="M 9.0413575,128.25858 Q -6.9100897,95.452775 8.1384454,56.928525 23.487951,17.501363 57.497641,5.1615645 90.303447,-6.8772637 125.21605,11.180979 q 36.11648,18.961154 47.55337,64.40773 3.91262,15.951447 1.80582,42.135901 -1.50485,17.15533 -5.41747,33.40775 -3.91262,16.25241 -9.93203,30.09707 -5.71844,13.84465 -9.63106,21.97086 -3.91262,7.82524 -9.3301,17.4563 -21.97086,38.52425 -53.572781,69.52423 -0.300971,0 -0.300971,0.30097 -2.708736,1.50485 -5.718443,1.50485 -2.708736,0 -7.524268,0 -4.815531,0 -15.048535,0 -9.932033,0 -16.553388,0 -6.621356,0 -6.621356,0 -2.106795,0 -2.106795,-1.80582 0,-0.90291 0.601942,-1.50485 h 0.30097 q 51.46599,-44.84464 83.970825,-110.75722 0,-0.60194 0,-0.90291 0,-2.1068 -1.80582,-2.1068 -0.60194,0 -3.00971,0.60194 -2.40777,0.30097 -7.52427,0.90291 -4.81553,0.30098 -12.038826,0.30098 -12.339798,0 -24.378626,-2.70874 -7.825239,-1.50485 -15.048536,-4.21359 -8.427179,-3.31068 -16.252418,-8.72815 -7.524267,-5.71844 -12.339798,-10.53398 -4.815532,-5.1165 -9.029122,-10.53397 -3.912619,-5.71844 -5.417472,-7.82524 -1.203883,-2.40776 -1.8058245,-3.91262 z M 118.29372,60.540174 Q 105.35198,47.297463 86.691799,47.297463 q -18.359213,0 -31.300953,13.242711 -12.94174,12.94174 -12.94174,31.300953 0,18.359213 12.94174,31.300953 12.94174,12.94174 31.300953,12.94174 18.660181,0 31.601921,-12.94174 12.94174,-12.94174 12.94174,-31.300953 0,-18.359213 -12.94174,-31.300953 z"
       id="path223" />
  </g>
</svg>
